<svg width="398" height="221" viewBox="0 0 398 221" fill="none" xmlns="http://www.w3.org/2000/svg">
<mask id="mask0_3445_22892" style="mask-type:alpha" maskUnits="userSpaceOnUse" x="0" y="0" width="398" height="221">
<rect width="398" height="221" fill="url(#paint0_linear_3445_22892)"/>
</mask>
<g mask="url(#mask0_3445_22892)">
<g opacity="0.2">
<circle opacity="0.1" cx="199" cy="152" r="198" fill="#FFF1F1"/>
<circle opacity="0.2" cx="199" cy="152" r="116.471" fill="#FFF1F1"/>
</g>
<g opacity="0.1">
<path d="M273.641 159.207H245.027V238.69H280V165.566C280 163.879 279.33 162.262 278.137 161.069C276.945 159.877 275.328 159.207 273.641 159.207V159.207ZM257.745 213.255H251.386V206.897H257.745V213.255ZM257.745 197.359H251.386V191H257.745V197.359ZM257.745 181.462H251.386V175.104H257.745V181.462ZM270.462 213.255H264.103V206.897H270.462V213.255ZM270.462 197.359H264.103V191H270.462V197.359ZM270.462 181.462H264.103V175.104H270.462V181.462Z" fill="white"/>
<path d="M231.929 143.311H194.54C192.752 143.311 191.038 144.021 189.774 145.285C188.51 146.549 187.8 148.263 187.8 150.051V238.69H203.696V229.152H222.772V238.69H238.669V150.051C238.669 148.263 237.959 146.549 236.695 145.285C235.431 144.021 233.716 143.311 231.929 143.311V143.311ZM203.696 213.255H197.338V206.897H203.696V213.255ZM203.696 197.359H197.338V191H203.696V197.359ZM203.696 181.462H197.338V175.104H203.696V181.462ZM203.696 165.566H197.338V159.207H203.696V165.566ZM216.414 213.255H210.055V206.897H216.414V213.255ZM216.414 197.359H210.055V191H216.414V197.359ZM216.414 181.462H210.055V175.104H216.414V181.462ZM216.414 165.566H210.055V159.207H216.414V165.566ZM229.131 213.255H222.772V206.897H229.131V213.255ZM229.131 197.359H222.772V191H229.131V197.359ZM229.131 181.462H222.772V175.104H229.131V181.462ZM229.131 165.566H222.772V159.207H229.131V165.566Z" fill="white"/>
</g>
<g opacity="0.1">
<path d="M117.704 183.586H138.869V242.379H113V188.289C113 187.042 113.496 185.846 114.378 184.964C115.26 184.081 116.456 183.586 117.704 183.586V183.586ZM129.462 223.565H134.166V218.862H129.462V223.565ZM129.462 211.807H134.166V207.103H129.462V211.807ZM129.462 200.048H134.166V195.345H129.462V200.048ZM120.055 223.565H124.759V218.862H120.055V223.565ZM120.055 211.807H124.759V207.103H120.055V211.807ZM120.055 200.048H124.759V195.345H120.055V200.048Z" fill="white"/>
<path d="M148.558 171.827H176.215C177.537 171.827 178.805 172.352 179.74 173.287C180.675 174.222 181.2 175.491 181.2 176.813V242.379H169.442V235.324H155.331V242.379H143.573V176.813C143.573 175.491 144.098 174.222 145.033 173.287C145.968 172.352 147.236 171.827 148.558 171.827V171.827ZM169.442 223.565H174.145V218.862H169.442V223.565ZM169.442 211.806H174.145V207.103H169.442V211.806ZM169.442 200.048H174.145V195.344H169.442V200.048ZM169.442 188.289H174.145V183.586H169.442V188.289ZM160.035 223.565H164.738V218.862H160.035V223.565ZM160.035 211.806H164.738V207.103H160.035V211.806ZM160.035 200.048H164.738V195.344H160.035V200.048ZM160.035 188.289H164.738V183.586H160.035V188.289ZM150.628 223.565H155.331V218.862H150.628V223.565ZM150.628 211.806H155.331V207.103H150.628V211.806ZM150.628 200.048H155.331V195.344H150.628V200.048ZM150.628 188.289H155.331V183.586H150.628V188.289Z" fill="white"/>
</g>
</g>
<defs>
<linearGradient id="paint0_linear_3445_22892" x1="199" y1="0" x2="199" y2="221" gradientUnits="userSpaceOnUse">
<stop stop-color="#357DEA"/>
<stop offset="1" stop-color="#0347AE"/>
</linearGradient>
</defs>
</svg>
